# xmcd
#
# Track frame offsets:
#	150
#	13534
#	26783
#	35481
#	45552
#	55425
#	62585
#	72209
#	82814
#	94478
#	103891
#	113867
#	126302
#	139437
#	150847
#	162785
#	172277
#	186327
#	195957
#	207534
#	216875
#	229358
#	240553
#	253042
#	263254
#	276030
#	291843
#	306169
#	318910
#	331857
#
# Disc length: 4577 seconds
#
# Revision: 0
# Processed by: cddbd v1.5.2PL0 Copyright (c) Steve Scherf et al.
# Submitted via: EasyCDDAExtractor 2010.6.0.0
#
DISCID=b711df1e
DTITLE=Marty Robbins - Just A Little Sentimental/Devil Woman
DYEAR=2013
DGENRE=Country
TTITLE0=A Little Sentimental
TTITLE1=Hurt
TTITLE2=To Each His Own
TTITLE3=I Can't Help It
TTITLE4=Answer Me My Love
TTITLE5=Clara
TTITLE6=Half As Much
TTITLE7=Unchained Melody
TTITLE8=Are You Sincere
TTITLE9=Guess I'll Be Going
TTITLE10=To Think You've Chosen Me
TTITLE11=Too Young
TTITLE12=Devil Woman
TTITLE13=Ain't Live A Crying Shame
TTITLE14=Time Can't Make Me Forgewt
TTITLE15=In The Ashes Of An Old Love Affair
TTITLE16=The Hand You're Holding Now
TTITLE17=Worried
TTITLE18=Little Rich Girl
TTITLE19=Progressive Love
TTITLE20=I'm Beginning To Forget
TTITLE21=Love Is A Hurting Thing
TTITLE22=Kinda Halfway Feel
TTITLE23=The Wine Föowed Freely
TTITLE24=April Fool's Day
TTITLE25=Jimmy Martinez
TTITLE26=Ghost Train
TTITLE27=It's Your World
TTITLE28=You Told Me So
TTITLE29=A White Sport Coat (And A Pink Carnation)
EXTD=
EXTT0=
EXTT1=
EXTT2=
EXTT3=
EXTT4=
EXTT5=
EXTT6=
EXTT7=
EXTT8=
EXTT9=
EXTT10=
EXTT11=
EXTT12=
EXTT13=
EXTT14=
EXTT15=
EXTT16=
EXTT17=
EXTT18=
EXTT19=
EXTT20=
EXTT21=
EXTT22=
EXTT23=
EXTT24=
EXTT25=
EXTT26=
EXTT27=
EXTT28=
EXTT29=
PLAYORDER=
